<svg xmlns="http://www.w3.org/2000/svg" width="40" height="40" viewBox="0 0 40 40">
  <defs>
    <linearGradient id="cardBgDark" x1="0%" y1="0%" x2="100%" y2="100%">
      <stop offset="0%" stop-color="#1B3828"/>
      <stop offset="100%" stop-color="#12251B"/>
    </linearGradient>
  </defs>
  <!-- Base Card -->
  <rect x="2" y="2" width="36" height="36" rx="8" fill="url(#cardBgDark)" stroke="#22C55E" stroke-width="2"/>
  <!-- Header Row Background -->
  <path d="M 2 10 Q 2 2 10 2 L 30 2 Q 38 2 38 10 L 38 15 L 2 15 Z" fill="#22C55E" fill-opacity="0.25"/>
  <!-- Column Headers -->
  <text x="7" y="11.5" font-family="-apple-system, BlinkMacSystemFont, 'Segoe UI', Roboto, Helvetica, Arial, sans-serif" font-weight="900" font-size="7.5" fill="#4ADE80">A</text>
  <text x="18" y="11.5" font-family="-apple-system, BlinkMacSystemFont, 'Segoe UI', Roboto, Helvetica, Arial, sans-serif" font-weight="900" font-size="7.5" fill="#4ADE80">B</text>
  <text x="29" y="11.5" font-family="-apple-system, BlinkMacSystemFont, 'Segoe UI', Roboto, Helvetica, Arial, sans-serif" font-weight="900" font-size="7.5" fill="#4ADE80">C</text>
  <!-- Grid Lines -->
  <line x1="2" y1="15" x2="38" y2="15" stroke="#22C55E" stroke-width="1.5"/>
  <line x1="2" y1="23" x2="38" y2="23" stroke="#22C55E" stroke-width="1.2" stroke-opacity="0.85"/>
  <line x1="2" y1="30.5" x2="38" y2="30.5" stroke="#22C55E" stroke-width="1.2" stroke-opacity="0.85"/>
  <line x1="14.5" y1="2" x2="14.5" y2="38" stroke="#22C55E" stroke-width="1.2" stroke-opacity="0.85"/>
  <line x1="25.5" y1="2" x2="25.5" y2="38" stroke="#22C55E" stroke-width="1.2" stroke-opacity="0.85"/>
  <!-- Lattice Nodes -->
  <circle cx="14.5" cy="2" r="1.4" fill="#4ADE80"/>
  <circle cx="25.5" cy="2" r="1.4" fill="#4ADE80"/>
  <circle cx="2" cy="15" r="1.4" fill="#4ADE80"/>
  <circle cx="14.5" cy="15" r="1.6" fill="#4ADE80"/>
  <circle cx="25.5" cy="15" r="1.6" fill="#4ADE80"/>
  <circle cx="38" cy="15" r="1.4" fill="#4ADE80"/>
  <circle cx="2" cy="23" r="1.4" fill="#4ADE80"/>
  <circle cx="14.5" cy="23" r="1.6" fill="#4ADE80"/>
  <circle cx="25.5" cy="23" r="1.6" fill="#4ADE80"/>
  <circle cx="38" cy="23" r="1.4" fill="#4ADE80"/>
  <circle cx="2" cy="30.5" r="1.4" fill="#4ADE80"/>
  <circle cx="14.5" cy="30.5" r="1.6" fill="#4ADE80"/>
  <circle cx="25.5" cy="30.5" r="1.6" fill="#4ADE80"/>
  <circle cx="38" cy="30.5" r="1.4" fill="#4ADE80"/>
  <circle cx="14.5" cy="38" r="1.4" fill="#4ADE80"/>
  <circle cx="25.5" cy="38" r="1.4" fill="#4ADE80"/>
</svg>
