<svg xmlns="http://www.w3.org/2000/svg" width="40" height="40" viewBox="0 0 40 40">
  <defs>
    <linearGradient id="cardBg" x1="0%" y1="0%" x2="100%" y2="100%">
      <stop offset="0%" stop-color="#E8F8F0"/>
      <stop offset="100%" stop-color="#D4F3E4"/>
    </linearGradient>
  </defs>
  <!-- Base Card -->
  <rect x="2" y="2" width="36" height="36" rx="8" fill="url(#cardBg)" stroke="#1B8754" stroke-width="2"/>
  <!-- Header Row Background -->
  <path d="M 2 10 Q 2 2 10 2 L 30 2 Q 38 2 38 10 L 38 15 L 2 15 Z" fill="#A3E6C2" fill-opacity="0.65"/>
  <!-- Column Headers -->
  <text x="7" y="11.5" font-family="-apple-system, BlinkMacSystemFont, 'Segoe UI', Roboto, Helvetica, Arial, sans-serif" font-weight="900" font-size="7.5" fill="#156D43">A</text>
  <text x="18" y="11.5" font-family="-apple-system, BlinkMacSystemFont, 'Segoe UI', Roboto, Helvetica, Arial, sans-serif" font-weight="900" font-size="7.5" fill="#156D43">B</text>
  <text x="29" y="11.5" font-family="-apple-system, BlinkMacSystemFont, 'Segoe UI', Roboto, Helvetica, Arial, sans-serif" font-weight="900" font-size="7.5" fill="#156D43">C</text>
  <!-- Grid Lines -->
  <line x1="2" y1="15" x2="38" y2="15" stroke="#1B8754" stroke-width="1.5"/>
  <line x1="2" y1="23" x2="38" y2="23" stroke="#1B8754" stroke-width="1.2"/>
  <line x1="2" y1="30.5" x2="38" y2="30.5" stroke="#1B8754" stroke-width="1.2"/>
  <line x1="14.5" y1="2" x2="14.5" y2="38" stroke="#1B8754" stroke-width="1.2"/>
  <line x1="25.5" y1="2" x2="25.5" y2="38" stroke="#1B8754" stroke-width="1.2"/>
  <!-- Lattice Nodes -->
  <circle cx="14.5" cy="2" r="1.4" fill="#156D43"/>
  <circle cx="25.5" cy="2" r="1.4" fill="#156D43"/>
  <circle cx="2" cy="15" r="1.4" fill="#156D43"/>
  <circle cx="14.5" cy="15" r="1.6" fill="#156D43"/>
  <circle cx="25.5" cy="15" r="1.6" fill="#156D43"/>
  <circle cx="38" cy="15" r="1.4" fill="#156D43"/>
  <circle cx="2" cy="23" r="1.4" fill="#156D43"/>
  <circle cx="14.5" cy="23" r="1.6" fill="#156D43"/>
  <circle cx="25.5" cy="23" r="1.6" fill="#156D43"/>
  <circle cx="38" cy="23" r="1.4" fill="#156D43"/>
  <circle cx="2" cy="30.5" r="1.4" fill="#156D43"/>
  <circle cx="14.5" cy="30.5" r="1.6" fill="#156D43"/>
  <circle cx="25.5" cy="30.5" r="1.6" fill="#156D43"/>
  <circle cx="38" cy="30.5" r="1.4" fill="#156D43"/>
  <circle cx="14.5" cy="38" r="1.4" fill="#156D43"/>
  <circle cx="25.5" cy="38" r="1.4" fill="#156D43"/>
</svg>
